# xmcd
#
# Track frame offsets:
#	150
#	15985
#	26927
#	39545
#	51950
#	65865
#	83102
#	101407
#	118930
#	132535
#	144942
#	155505
#	170402
#	182255
#	199497
#	215975
#	232590
#	245457
#	261805
#	273482
#
# Disc length: 3860 seconds
#
# Revision: 0
# Processed by: cddbd v1.5.2PL0 Copyright (c) Steve Scherf et al.
# Submitted via: EasyCDDAExtractor 16.0.6.1
#
DISCID=240f1214
DTITLE=Σακελλαρίου Ρίτα - Η ιστορία μου-Ρ. Σακελλαρίου 2
DYEAR=1994
DGENRE=Λαϊκή
TTITLE0=Ένα τραγούδι πές μου ακόμα [1979, Τάκης Μουσαφίρης]
TTITLE1=Μιά ζωή πληρώνω [1980, Τάκης Μουσαφίρης]
TTITLE2=Λες να μην το ξέρω [1980, Τάκης Μουσαφίρης]
TTITLE3=Όλες οι γυναίκες μοιάζουμε [1979, Αλ. Χρυσοβέργης-Μάρω Μπιζάνη]
TTITLE4=Έχω κι εγώ τα δικά μου [1982, Τάκης Μουσαφίρης]
TTITLE5=Αυτός ο άνθρωπος [1979, Λυκ. Μαρκέας-Μάρω Μπιζάνη]
TTITLE6=Εσύ ό,τι πεις [1984, Θεόδ. Άγγελος-Ηλίας Τριφωνίδης]
TTITLE7=Μόνη μου [1983, Τάκης Μουσαφίρης]
TTITLE8=Από συμφέρον μοναχά μ' αγαπούσες [1986, Ν. Καρβέλας]
TTITLE9=Ναύτης και καντηλανάφτης [1984, Σταμ. Καλλιανός-Δημ. Ιατρόπουλος]
TTITLE10=Είναι γάτα [1986, Ν. Καρβέλας]
TTITLE11=Αρέσω [1986, Ν. Καρβέλας]
TTITLE12=Έλα μιά νύχτα [1979, Τάκης Μουσαφίρης]
TTITLE13=Σώσε με [1986, Ν. Καρβέλας]
TTITLE14=Απορώ [1989, Βασ. Σαλέας-Γιάννης Πάριος]
TTITLE15=Περιπέτεια [1988, Τάκης Σούκας-Λευτ. Χαψιάδης]
TTITLE16=Εγώ είμαι η Ρίτα [1991, Χάρης Καλούδης-Μπάμπης Διπλάρος]
TTITLE17=Αυτός ο έρωτας, αυτό τ' αγόρι [1989, Ανδ. Μέξας-Λευτ. Χαψιάδης]
TTITLE18=Οι σαραντάρες [1987, Γιάννης Καραλής]
TTITLE19=Εγώ δεν πάω μέγαρο [1994, Νίκος Τερζής-Γ. Παυριανός]
EXTD=
EXTT0=
EXTT1=
EXTT2=
EXTT3=
EXTT4=
EXTT5=
EXTT6=
EXTT7=
EXTT8=
EXTT9=
EXTT10=
EXTT11=
EXTT12=
EXTT13=
EXTT14=
EXTT15=
EXTT16=
EXTT17=
EXTT18=
EXTT19=
PLAYORDER=
